<!-- Simple WhatsApp icon with transparent background -->
<svg xmlns="http://www.w3.org/2000/svg" viewBox="0 0 24 24" width="120" height="120" fill="none">
  <path d="M20.52 3.48A11.9 11.9 0 0 0 12.03.5C6.1.5 1.29 4.8.5 10.16c-.5 3.13.5 6.02 2.73 8.09L.5 23.5l5.45-1.41A11.9 11.9 0 0 0 12.03 24c5.93 0 10.74-4.3 11.52-9.66.78-5.36-2.67-10.86-3.03-10.86z" fill="#25D366"/>
  <path d="M17.6 14.3c-.3-.15-1.78-.86-2.06-.96-.28-.1-.49-.15-.7.15-.21.3-.83.96-1.02 1.16-.19.21-.38.23-.7.08-.3-.15-1.27-.47-2.41-1.47-.9-.8-1.5-1.78-1.68-2.08-.19-.3-.02-.46.14-.61.14-.13.3-.34.45-.51.15-.17.2-.3.3-.5.1-.2.05-.37-.02-.52s-.7-1.7-.96-2.33c-.25-.61-.51-.5-.7-.51-.18-.01-.37-.01-.57-.01-.19 0-.5.07-.76.35-.26.28-1 1-1 2.43 0 1.42 1.03 2.8 1.17 2.99.14.17 2.02 3.1 4.9 4.24 2.14.86 2.92.95 3.97.79.65-.1 1.78-.72 2.03-1.42.25-.7.25-1.3.18-1.42-.07-.12-.26-.2-.57-.35z" fill="#fff"/>
</svg>